<svg width="1436" height="336" viewBox="0 0 1436 336" fill="none" xmlns="http://www.w3.org/2000/svg">
<path d="M60 0.5H0V126L60 222V0.5Z" fill="white"/>
<path d="M0 335.5H60L0 239V335.5Z" fill="white"/>
<path d="M194 1H134L194.288 97.5L194 1Z" fill="white"/>
<path d="M134 335.5H195L194.628 211L134 114.5V335.5Z" fill="white"/>
<path d="M410 1H337.5L235 168L337.5 335.5H411.5L308 168L410 1Z" fill="white"/>
<path d="M644 322C457.684 387.768 342.433 160.961 471 44.4998L503 96.4998C432 182 513 296.5 611.5 270L644 322Z" fill="white"/>
<path d="M522 12.7393C708.316 -53.0294 823.567 173.778 695 290.239L663 238.239C734 152.739 653 38.239 554.5 64.739L522 12.7393Z" fill="white"/>
<path d="M817 1V335.5H877V45.5L1058.5 335.5H1118.5L1058.5 238.777L911 1H877H817Z" fill="white"/>
<path d="M1118.5 1H1058.5V124.5L1118.5 221V1Z" fill="white"/>
<path d="M1436 335L1194 335.5V278.5H1385H1436V335Z" fill="white"/>
<path d="M1194 1H1436V56.5H1385H1194V1Z" fill="white"/>
<path d="M1194 139.5H1385V195H1194V139.5Z" fill="white"/>
</svg>
